<?xml version="1.0" encoding="utf-8"?>
<!-- Generator: Adobe Illustrator 25.4.7, SVG Export Plug-In . SVG Version: 6.00 Build 0)  -->
<svg version="1.1" id="Layer_1" xmlns="http://www.w3.org/2000/svg" xmlns:xlink="http://www.w3.org/1999/xlink" x="0px" y="0px"
	 viewBox="0 0 1426.9 203.2" style="enable-background:new 0 0 1426.9 203.2;" xml:space="preserve">
<style type="text/css">
	.st0{fill:#FFFFFF;}
	.st1{font-family:'Audiowide-Regular';}
	.st2{font-size:179px;}
	.st3{fill:none;stroke:#FFFFFF;stroke-width:2;stroke-miterlimit:10;}
	.st4{fill:none;stroke:#FFFFFF;stroke-width:4;stroke-miterlimit:10;}
</style>
<text transform="matrix(1 0 0 1 286.3411 152.1681)" class="st0 st1 st2">SpyBrowse</text>
<g>
	<ellipse class="st0" cx="137.1" cy="97.4" rx="137.1" ry="26.7"/>
	<path class="st0" d="M84.7,5.2L84.7,5.2c-9.1,0-18.4,10.3-21.5,19.7l-15,56c0,9.1,7.4,16.5,16.5,16.5h144.7
		c9.1,0,16.5-7.4,16.5-16.5L137.1,17C101.3,17,93.8,5.2,84.7,5.2z"/>
	<path class="st0" d="M189.5,5.2L189.5,5.2c9.1,0,18.4,10.3,21.5,19.7l14.9,55.9c0,9.1-7.4,16.5-16.5,16.5H64.7
		c-9.1,0-16.5-7.4-16.5-16.5L137.1,17C172.8,17,180.3,5.2,189.5,5.2z"/>
	<g>
		<g>
			<path class="st0" d="M192.7,197.9c-10,0.9-21.3-2.7-34-18.3c-6-7.4-12.9-17.9-12.9-25.9c0-7.3,6.5-12.3,10.7-14
				c10.6-4.2,16.3-4.1,25.4-4c8.5,0.1,22.9,0.8,29.6,8.6c6.7,7.9,5.6,22.8,4.5,27.2c0,0-0.2,7.7-7.4,18.2
				C202.7,198,194.8,197.1,192.7,197.9z"/>
			<path class="st0" d="M79.4,197.9c10,0.9,21.3-2.7,34-18.3c6-7.4,12.9-17.9,12.9-25.9c0-7.3-6.5-12.3-10.7-14
				c-10.6-4.2-16.3-4.1-25.4-4c-8.5,0.1-22.9,0.8-29.6,8.6c-6.7,7.9-5.6,22.8-4.5,27.2c0,0,0.2,7.7,7.4,18.2
				C69.3,198,77.3,197.1,79.4,197.9z"/>
		</g>
		<path class="st3" d="M103.9,135.8c0,0,7.6,1.5,32.1,1.6s32.1-1.6,32.1-1.6"/>
		<g>
			<path class="st3" d="M136.3,142.5c2.2,0,6.7,0.5,7.6,2.1c1.5,2.8,2.3,10.1,2.3,10.1"/>
			<path class="st3" d="M136.3,142.5c-2.2,0-7.1,0.5-8,2.1c-1.5,2.8-2.3,10.1-2.3,10.1"/>
		</g>
		<g>
			<line class="st4" x1="51" y1="158.8" x2="59.4" y2="158.8"/>
			<line class="st4" x1="212.7" y1="158.8" x2="221.1" y2="158.8"/>
		</g>
	</g>
</g>
</svg>
