<?xml version="1.0" encoding="utf-8"?>
<!-- Generator: Adobe Illustrator 26.4.1, SVG Export Plug-In . SVG Version: 6.00 Build 0)  -->
<svg version="1.1" id="Layer_1" xmlns="http://www.w3.org/2000/svg" xmlns:xlink="http://www.w3.org/1999/xlink" x="0px" y="0px"
	 viewBox="0 0 1426.9 203.2" style="enable-background:new 0 0 1426.9 203.2;" xml:space="preserve">
<style type="text/css">
	.st0{enable-background:new    ;}
	.st1{fill:#FFFFFF;}
	.st2{fill:none;stroke:#FFFFFF;stroke-width:2;stroke-miterlimit:10;}
	.st3{fill:none;stroke:#FFFFFF;stroke-width:4;stroke-miterlimit:10;}
</style>
<g class="st0">
	<path class="st1" d="M420,115.3c0,4.5-0.6,8.5-1.7,12.1c-1.1,3.6-2.6,6.7-4.5,9.5c-1.9,2.7-4.1,5.1-6.6,7c-2.5,1.9-5.1,3.5-7.8,4.7
		c-2.7,1.2-5.4,2.1-8.2,2.7c-2.8,0.6-5.4,0.9-7.8,0.9h-87.7v-22.7h87.7c4.4,0,7.8-1.3,10.2-3.8c2.4-2.6,3.6-6,3.6-10.3
		c0-2.1-0.3-4-1-5.8c-0.6-1.7-1.6-3.3-2.8-4.5c-1.2-1.3-2.7-2.3-4.4-3c-1.7-0.7-3.6-1-5.7-1h-52.3c-3.7,0-7.6-0.7-11.9-2
		c-4.3-1.3-8.2-3.4-11.8-6.3c-3.6-2.9-6.7-6.7-9.1-11.4c-2.4-4.7-3.6-10.5-3.6-17.3s1.2-12.6,3.6-17.3c2.4-4.7,5.4-8.5,9.1-11.5
		c3.6-2.9,7.6-5.1,11.8-6.4c4.3-1.3,8.2-2,11.9-2h77.4v22.7h-77.4c-4.3,0-7.7,1.3-10.1,3.9c-2.4,2.6-3.6,6.1-3.6,10.4
		c0,4.4,1.2,7.8,3.6,10.4c2.4,2.5,5.8,3.8,10.1,3.8h52.3h0.2c2.4,0.1,5,0.4,7.8,1c2.7,0.6,5.5,1.6,8.2,2.8c2.7,1.3,5.3,2.9,7.7,4.9
		c2.4,2,4.6,4.3,6.5,7c1.9,2.7,3.4,5.9,4.5,9.4C419.4,106.8,420,110.8,420,115.3z"/>
	<path class="st1" d="M540.5,120.3c0,3.9-0.5,7.4-1.5,10.5c-1,3.1-2.3,5.9-3.9,8.2c-1.6,2.4-3.5,4.4-5.7,6c-2.2,1.7-4.4,3-6.8,4.1
		c-2.4,1-4.7,1.8-7.1,2.3c-2.4,0.5-4.7,0.7-6.8,0.7h-41v-22.7h41c3,0,5.3-0.8,6.8-2.4c1.5-1.6,2.3-3.8,2.3-6.8V89.7
		c0-3.1-0.8-5.5-2.3-7c-1.5-1.5-3.8-2.3-6.8-2.3h-40.8c-3.1,0-5.4,0.8-7,2.3c-1.6,1.5-2.4,3.8-2.4,6.8v92.2h-22.7V89.5
		c0-3.9,0.5-7.4,1.5-10.5c1-3.1,2.3-5.8,4-8.2c1.7-2.4,3.6-4.4,5.7-6c2.2-1.7,4.4-3,6.8-4.1c2.4-1,4.7-1.8,7.2-2.3
		c2.4-0.5,4.7-0.7,6.8-0.7h41c3.9,0,7.4,0.5,10.5,1.5c3.1,1,5.8,2.3,8.2,3.9c2.4,1.6,4.4,3.5,6,5.7c1.7,2.2,3,4.4,4.1,6.8
		c1,2.4,1.8,4.7,2.3,7.1c0.5,2.4,0.7,4.7,0.7,6.8V120.3z"/>
	<path class="st1" d="M632.3,152.2h-41c-3.3,0-6.7-0.6-10.4-1.7c-3.7-1.1-7.2-2.9-10.4-5.5c-3.2-2.5-5.9-5.8-8-9.9
		c-2.1-4-3.1-9-3.1-14.9V57.7h22.7v62.6c0,3,0.8,5.2,2.4,6.8c1.6,1.6,3.9,2.4,7,2.4h40.8V152.2z M664.1,161.3
		c0,3.9-0.5,7.4-1.5,10.5c-1,3.1-2.3,5.9-3.9,8.2c-1.6,2.4-3.5,4.4-5.7,6c-2.2,1.7-4.4,3-6.8,4.1c-2.4,1-4.7,1.8-7.1,2.3
		c-2.4,0.5-4.7,0.7-6.8,0.7h-41v-22.7h41c3,0,5.3-0.8,6.8-2.4c1.5-1.6,2.3-3.8,2.3-6.8V57.7h22.7V161.3z"/>
	<path class="st1" d="M813.4,124.6c0,2.8-0.5,5.8-1.4,9c-1,3.2-2.5,6.2-4.7,8.9c-2.2,2.7-5,5-8.5,6.9c-3.5,1.8-7.8,2.8-12.8,2.8
		h-86.3c-1.6,0-3.1-0.3-4.5-0.9c-1.4-0.6-2.6-1.4-3.6-2.4c-1-1-1.8-2.2-2.4-3.6c-0.6-1.4-0.9-2.9-0.9-4.5V38.3
		c0-1.6,0.3-3.1,0.9-4.5c0.6-1.4,1.4-2.6,2.4-3.7c1-1,2.2-1.9,3.6-2.4c1.4-0.6,2.9-0.9,4.5-0.9h76c2.8,0,5.8,0.5,9,1.5
		c3.2,1,6.2,2.6,9,4.8c2.8,2.2,5.1,5,6.9,8.5c1.8,3.5,2.8,7.8,2.8,12.8v4.3c0,4-0.7,8.3-2,13c-1.3,4.6-3.5,9-6.5,13.2
		c2.6,1.6,5,3.5,7.2,5.7c2.2,2.2,4.2,4.8,5.9,7.7c1.7,2.9,3,6.2,4,9.9c1,3.7,1.5,7.7,1.5,12.1V124.6z M790.7,120.3
		c0-3-0.5-5.6-1.4-8c-0.9-2.4-2.2-4.4-3.9-6.1c-1.7-1.7-3.7-3-6.1-3.9c-2.4-0.9-5.1-1.4-8-1.4h-51.2V78.1h41c3,0,5.7-0.5,8-1.4
		c2.4-0.9,4.4-2.2,6.1-3.9c1.7-1.7,3-3.7,3.9-6.1c0.9-2.4,1.4-5,1.4-8v-4.3c0-3.3-1.6-4.9-4.7-4.9h-64.8v79.9h75
		c0.4,0,0.9,0,1.5-0.1c0.6-0.1,1.1-0.2,1.6-0.5c0.5-0.3,0.9-0.8,1.2-1.5s0.5-1.7,0.5-2.9V120.3z"/>
	<path class="st1" d="M913.3,80.4h-51.1c-3.1,0-5.4,0.8-7,2.3c-1.6,1.5-2.4,3.8-2.4,6.8v62.7h-22.7V89.5c0-3.9,0.5-7.4,1.5-10.5
		c1-3.1,2.3-5.8,4-8.2c1.7-2.4,3.6-4.4,5.7-6c2.2-1.7,4.4-3,6.8-4.1c2.4-1,4.7-1.8,7.2-2.3c2.4-0.5,4.7-0.7,6.8-0.7h51.3V80.4z"/>
	<path class="st1" d="M1030.7,120.3c0,3.9-0.5,7.4-1.5,10.5c-1,3.1-2.3,5.9-3.9,8.2c-1.6,2.4-3.5,4.4-5.7,6c-2.2,1.7-4.4,3-6.8,4.1
		c-2.4,1-4.8,1.8-7.2,2.3c-2.4,0.5-4.7,0.7-6.9,0.7h-41c-3.1,0-6.6-0.6-10.3-1.7c-3.7-1.1-7.2-2.9-10.4-5.5c-3.2-2.5-5.8-5.8-8-9.9
		c-2.1-4-3.2-9-3.2-14.9V89.5c0-5.8,1.1-10.8,3.2-14.8c2.1-4,4.8-7.3,8-9.9c3.2-2.5,6.6-4.4,10.4-5.5c3.7-1.1,7.2-1.7,10.3-1.7h41
		c5.8,0,10.8,1,14.9,3.1c4.1,2.1,7.4,4.7,9.9,7.9c2.5,3.2,4.3,6.6,5.5,10.4c1.1,3.7,1.7,7.2,1.7,10.4V120.3z M1007.9,89.7
		c0-3.1-0.8-5.5-2.4-7c-1.6-1.5-3.8-2.3-6.8-2.3h-40.8c-3,0-5.3,0.8-6.9,2.3c-1.6,1.5-2.4,3.8-2.4,6.8v30.8c0,3,0.8,5.2,2.4,6.8
		c1.6,1.6,3.9,2.4,6.9,2.4h40.8c3.1,0,5.4-0.8,6.9-2.4c1.5-1.6,2.3-3.8,2.3-6.8V89.7z"/>
	<path class="st1" d="M1205.6,57.7c-3.6,8.1-7.5,16.1-11.7,23.9c-4.2,7.8-8.6,15.3-13.2,22.2c-4.6,7-9.3,13.4-14,19.4
		c-4.8,5.9-9.5,11-14.2,15.3c-4.7,4.3-9.3,7.6-13.7,10.1c-4.5,2.4-8.7,3.6-12.6,3.6c-1.6,0-3.1-0.3-4.5-0.9
		c-1.4-0.6-2.6-1.4-3.7-2.4c-1-1-1.9-2.2-2.4-3.6c-0.6-1.4-0.9-2.9-0.9-4.5V98.3l-45.1,50.4c-1.2,1.2-2.4,2-3.8,2.6
		c-1.4,0.6-2.8,0.8-4.2,0.8c-1.6,0-3-0.3-4.4-0.9c-1.4-0.6-2.6-1.4-3.6-2.4c-1-1-1.9-2.2-2.5-3.6c-0.6-1.4-0.9-2.9-0.9-4.5v-83h22.7
		v53.8l45.3-50.6c1.6-1.6,3.6-2.7,5.8-3.1c2.2-0.4,4.4-0.2,6.6,0.7c2.2,0.9,3.9,2.3,5.1,4.2c1.3,1.9,1.9,4,1.9,6.2v54
		c4.9-4.7,9.3-9.7,13.3-14.9c4-5.2,7.6-10.6,11.1-16.2c3.4-5.6,6.6-11.2,9.6-17c3-5.7,5.9-11.5,8.8-17.2H1205.6z"/>
	<path class="st1" d="M1304.8,120.3c0,3.9-0.5,7.4-1.5,10.5c-1,3.1-2.3,5.9-3.9,8.2c-1.6,2.4-3.5,4.4-5.7,6c-2.2,1.7-4.4,3-6.8,4.1
		c-2.4,1-4.8,1.8-7.2,2.3c-2.4,0.5-4.7,0.7-6.9,0.7h-61.5v-22.7h61.4c3.1,0,5.4-0.8,7-2.4c1.6-1.6,2.4-3.8,2.4-6.8
		c-0.3-6.1-3.4-9.1-9.2-9.1h-35.2c-5,0-9.3-0.9-12.8-2.6s-6.3-3.9-8.5-6.6c-2.2-2.6-3.8-5.4-4.7-8.5c-1-3-1.4-5.9-1.4-8.5
		c0-5.1,0.9-9.3,2.7-12.8c1.8-3.5,4.1-6.3,6.8-8.4c2.7-2.2,5.7-3.7,8.9-4.7c3.2-1,6.2-1.4,9-1.4h55.9v22.7h-55.7
		c-1.2,0-2.1,0.1-2.8,0.4c-0.7,0.3-1.2,0.6-1.5,1c-0.3,0.4-0.5,0.9-0.6,1.4c-0.1,0.5-0.1,1-0.1,1.4c0.1,0.9,0.2,1.7,0.5,2.2
		c0.3,0.5,0.7,0.9,1.1,1.1c0.4,0.2,0.9,0.4,1.5,0.4c0.6,0,1.1,0,1.6,0h35.2c5.8,0,10.8,1,14.9,3.1c4.1,2.1,7.4,4.7,9.9,7.9
		c2.5,3.2,4.3,6.6,5.5,10.4C1304.2,113.6,1304.8,117.1,1304.8,120.3z"/>
	<path class="st1" d="M1422.3,89c0,3.1-0.6,6.5-1.7,10.2c-1.1,3.6-2.9,7-5.4,10.1c-2.5,3.1-5.7,5.7-9.7,7.8c-4,2.1-8.8,3.1-14.6,3.1
		h-41V98.7h41c3.1,0,5.5-0.9,7.2-2.8c1.7-1.9,2.5-4.2,2.5-7c0-3-0.9-5.3-2.8-7c-1.9-1.7-4.2-2.5-6.9-2.5h-41c-3.1,0-5.5,0.9-7.2,2.8
		c-1.7,1.9-2.5,4.2-2.5,7v31.7c0,3,0.9,5.4,2.8,7.1c1.9,1.7,4.2,2.5,7,2.5h40.8v21.7h-41c-3.1,0-6.5-0.6-10.2-1.7
		c-3.6-1.1-7-2.9-10.1-5.4c-3.1-2.5-5.7-5.7-7.8-9.7c-2.1-4-3.1-8.8-3.1-14.6V89c0-3.1,0.6-6.5,1.7-10.2c1.1-3.6,2.9-7,5.4-10.1
		c2.5-3.1,5.7-5.7,9.7-7.8c4-2.1,8.8-3.1,14.6-3.1h41c3.1,0,6.5,0.6,10.2,1.7c3.6,1.1,7,2.9,10.1,5.4c3.1,2.5,5.7,5.7,7.8,9.7
		C1421.3,78.4,1422.3,83.3,1422.3,89z"/>
</g>
<g>
	<ellipse class="st1" cx="137.1" cy="97.4" rx="137.1" ry="26.7"/>
	<path class="st1" d="M84.7,5.2L84.7,5.2c-9.1,0-18.4,10.3-21.5,19.7l-15,56c0,9.1,7.4,16.5,16.5,16.5h144.7
		c9.1,0,16.5-7.4,16.5-16.5L137.1,17C101.3,17,93.8,5.2,84.7,5.2z"/>
	<path class="st1" d="M189.5,5.2L189.5,5.2c9.1,0,18.4,10.3,21.5,19.7l14.9,55.9c0,9.1-7.4,16.5-16.5,16.5H64.7
		c-9.1,0-16.5-7.4-16.5-16.5L137.1,17C172.8,17,180.3,5.2,189.5,5.2z"/>
	<g>
		<g>
			<path class="st1" d="M192.7,197.9c-10,0.9-21.3-2.7-34-18.3c-6-7.4-12.9-17.9-12.9-25.9c0-7.3,6.5-12.3,10.7-14
				c10.6-4.2,16.3-4.1,25.4-4c8.5,0.1,22.9,0.8,29.6,8.6c6.7,7.9,5.6,22.8,4.5,27.2c0,0-0.2,7.7-7.4,18.2
				C202.7,198,194.8,197.1,192.7,197.9z"/>
			<path class="st1" d="M79.4,197.9c10,0.9,21.3-2.7,34-18.3c6-7.4,12.9-17.9,12.9-25.9c0-7.3-6.5-12.3-10.7-14
				c-10.6-4.2-16.3-4.1-25.4-4c-8.5,0.1-22.9,0.8-29.6,8.6c-6.7,7.9-5.6,22.8-4.5,27.2c0,0,0.2,7.7,7.4,18.2
				C69.3,198,77.3,197.1,79.4,197.9z"/>
		</g>
		<path class="st2" d="M103.9,135.8c0,0,7.6,1.5,32.1,1.6s32.1-1.6,32.1-1.6"/>
		<g>
			<path class="st2" d="M136.3,142.5c2.2,0,6.7,0.5,7.6,2.1c1.5,2.8,2.3,10.1,2.3,10.1"/>
			<path class="st2" d="M136.3,142.5c-2.2,0-7.1,0.5-8,2.1c-1.5,2.8-2.3,10.1-2.3,10.1"/>
		</g>
		<g>
			<line class="st3" x1="51" y1="158.8" x2="59.4" y2="158.8"/>
			<line class="st3" x1="212.7" y1="158.8" x2="221.1" y2="158.8"/>
		</g>
	</g>
</g>
</svg>
